<svg width="455" height="391" viewBox="0 0 455 391" fill="none" xmlns="http://www.w3.org/2000/svg">
<path d="M188.884 259.233C17.1429 183.468 -7.5026 315.509 1.64228 391H433.052L446.77 383.451L453.628 374.529L455 365.607V38.25C273.931 -52.3394 262.729 38.9363 281.476 96.5841C322.171 182.37 360.625 334.999 188.884 259.233Z" fill="#FF8FB1" fill-opacity="0.25"/>
<path d="M261 294.5C135.8 239.3 117.833 335.5 124.5 390.5H439L449 385L454 378.5L455 372V133.5C323 67.4998 314.833 134 328.5 176C358.167 238.5 386.2 349.7 261 294.5Z" fill="#FF8FB1" fill-opacity="0.76"/>
<path d="M312.876 320.904C221.155 280.599 207.993 350.841 212.877 391H443.278L450.604 386.984L454.267 382.238L455 377.492V203.348C358.297 155.157 352.314 203.713 362.327 234.38C384.06 280.015 404.597 361.209 312.876 320.904Z" fill="#7A4495"/>
</svg>
